<svg width="36" height="36" viewBox="0 0 36 36" fill="none" xmlns="http://www.w3.org/2000/svg">
<path d="M36 18C36 27.9417 27.9417 36 18 36C8.05834 36 0 27.9417 0 18C0 8.05834 8.05834 0 18 0C27.9417 0 36 8.05834 36 18Z" fill="black"/>
<path fill-rule="evenodd" clip-rule="evenodd" d="M7.36702 12.3823C7.03371 12.194 6.62109 12.4348 6.62109 12.8176V23.1803C6.62109 23.5631 7.0337 23.8039 7.36702 23.6157L9.44501 22.4418C9.60201 22.3531 9.69909 22.1868 9.69909 22.0065V13.9915C9.69909 13.8112 9.60201 13.6448 9.44501 13.5562L7.36702 12.3823Z" fill="#FF3B30"/>
<path fill-rule="evenodd" clip-rule="evenodd" d="M7.73195 10.9421C7.39312 11.1336 7.39332 11.6217 7.73231 11.8129L9.80448 12.9817C9.95707 13.0677 10.1436 13.0677 10.2961 12.9815L17.3981 8.96838C17.5551 8.87968 17.6521 8.71336 17.6521 8.53307V6.19282C17.6521 5.80996 17.2394 5.56916 16.9061 5.75752L7.73195 10.9421Z" fill="#FF3B30"/>
<path fill-rule="evenodd" clip-rule="evenodd" d="M18.3594 8.53321C18.3594 8.71342 18.4564 8.87969 18.6132 8.96842L25.7077 12.9813C25.8603 13.0676 26.0469 13.0677 26.1995 12.9816L28.2725 11.8124C28.6113 11.6213 28.6117 11.1335 28.2733 10.9418L23.6897 8.34545L19.1052 5.75703C18.7719 5.56884 18.3594 5.80966 18.3594 6.19242V8.53321Z" fill="#FF3B30"/>
<path fill-rule="evenodd" clip-rule="evenodd" d="M26.5588 13.5562C26.4018 13.6448 26.3047 13.8112 26.3047 13.9915V22.0065C26.3047 22.1868 26.4018 22.3531 26.5588 22.4418L28.6368 23.6157C28.9701 23.8039 29.3827 23.5631 29.3827 23.1803V12.8176C29.3827 12.4348 28.9701 12.194 28.6368 12.3823L26.5588 13.5562Z" fill="#FF3B30"/>
<path fill-rule="evenodd" clip-rule="evenodd" d="M26.2001 23.0225C26.0471 22.9358 25.86 22.9359 25.707 23.0225C23.3435 24.362 20.9799 25.6953 18.6131 27.0347C18.4563 27.1234 18.3594 27.2897 18.3594 27.4698V29.8106C18.3594 30.1934 18.772 30.4342 19.1053 30.2459L28.2733 25.0677C28.6119 24.8765 28.6122 24.3889 28.2739 24.1973L26.2001 23.0225Z" fill="#FF3B30"/>
<path fill-rule="evenodd" clip-rule="evenodd" d="M17.6521 27.4696C17.6521 27.2896 17.5553 27.1234 17.3987 27.0347C15.0348 25.695 12.6705 24.3615 10.2966 23.0218C10.1438 22.9355 9.957 22.9357 9.80436 23.0222L7.7303 24.1971C7.39193 24.3888 7.39231 24.8764 7.73099 25.0676L16.9064 30.2463C17.2397 30.4344 17.6521 30.1936 17.6521 29.8109V27.4696Z" fill="#FF3B30"/>
<path fill-rule="evenodd" clip-rule="evenodd" d="M10.4062 20.5506C10.4062 21.6319 10.9881 22.6295 11.9293 23.1618L16.5242 25.7608C17.4402 26.279 18.5608 26.2792 19.477 25.7615L24.0781 23.1616C25.0198 22.6294 25.6022 21.6315 25.6022 20.5497V15.4509C25.6022 14.37 25.0206 13.3726 24.0799 12.8401L21.7975 11.5483L19.4781 10.2398C18.5612 9.7226 17.4404 9.72388 16.5242 10.2424C14.9929 11.109 13.4613 11.9739 11.9286 12.8405C10.9877 13.3725 10.4062 14.3699 10.4062 15.4509V20.5506Z" fill="#FF3B30"/>
</svg>
