<svg width="18" height="20" viewBox="0 0 18 20" fill="none" xmlns="http://www.w3.org/2000/svg">
<path fill-rule="evenodd" clip-rule="evenodd" d="M16.8198 9.6063C17.8247 12.318 16.8357 15.9079 15.075 17.6686C13.0568 19.6868 8.77128 20.0225 6.10174 18.7473C4.39596 17.9335 2.60786 16.6574 1.53858 15.8425C0.927423 15.3759 0.663533 14.5959 0.830313 13.8454C1.13219 12.4869 2.66486 11.8134 3.86924 12.509L5.16335 13.2564C5.61407 13.516 6.17774 13.1909 6.17774 12.6705V2.26488C6.17774 1.28955 6.96729 0.5 7.94158 0.5C8.90638 0.5 9.69168 1.27372 9.70648 2.23744L9.77608 6.80271C12.2461 7.0381 15.8213 6.91037 16.8198 9.6063Z" fill="black"/>
</svg>
